# xmcd CD database file generated by Grip 2.96
# 
# Track frame offsets:
#       150
#       14457
#       30525
#       41187
#       57815
#       75817
#       87420
#       102330
#       113732
#       130165
#       147015
#       160672
# 
# Disc length: 2275 seconds
# 
# Revision: 0
# Processed by: cddbd v1.4PL0 Copyright (c) Steve Scherf et al.
# Submitted via: Grip 2.96
# 
DISCID=8c08e10c
DTITLE=Keith Little - Distant Land To Roam
DYEAR=1900
DGENRE=
TTITLE0=Weary Ol' Highway
TTITLE1=Down Among the Budded Roses
TTITLE2=Please Come Back Little Pal
TTITLE3=Lonesome Road to Travel
TTITLE4=Nightingale
TTITLE5=Where Dear Friends Will Never Part
TTITLE6=Distant Land to Roam
TTITLE7=Carolina Mountain Home
TTITLE8=Before the Prairie Met the Plow
TTITLE9=Been All Around this World
TTITLE10=Home on the Highway
TTITLE11=Chief Sitting Bull
EXTD=
EXTT0=
EXTT1=
EXTT2=
EXTT3=
EXTT4=
EXTT5=
EXTT6=
EXTT7=
EXTT8=
EXTT9=
EXTT10=
EXTT11=
PLAYORDER=
